<?xml version="1.0" encoding="UTF-8"?>
<svg width="107px" height="107px" viewBox="0 0 107 107" version="1.1" xmlns="http://www.w3.org/2000/svg" xmlns:xlink="http://www.w3.org/1999/xlink">
    <!-- Generator: Sketch 56.3 (81716) - https://sketch.com -->
    <title>icon_seamless</title>
    <desc>Created with Sketch.</desc>
    <g id="Website" stroke="none" stroke-width="1" fill="none" fill-rule="evenodd">
        <g id="01-Landing" transform="translate(-1098.000000, -1112.000000)" fill-rule="nonzero">
            <g id="Principles" transform="translate(160.000000, 972.000000)">
                <g id="04-Seamless" transform="translate(862.000000, 106.000000)">
                    <g id="icon_seamless" transform="translate(74.000000, 32.000000)">
                        <rect id="Rectangle" fill="#E5EDF4" transform="translate(55.500000, 55.500000) rotate(-12.000000) translate(-55.500000, -55.500000) " x="9" y="9" width="93" height="93" rx="10"></rect>
                        <g id="Icon_Seamless" transform="translate(27.000000, 28.000000)" fill="#365A8A">
                            <path d="M12.180791,13.2881356 L1.10734463,13.2881356 C0.495775079,13.2881356 0,12.7923605 0,12.180791 L0,1.10734463 C0,0.495775079 0.495775079,0 1.10734463,0 L12.180791,0 C12.7923605,0 13.2881356,0.495775079 13.2881356,1.10734463 L13.2881356,12.180791 C13.2881356,12.7923605 12.7923605,13.2881356 12.180791,13.2881356 Z" id="Shape"></path>
                            <polygon id="Path" points="2.21468927 11.0734463 11.0734463 11.0734463 11.0734463 2.21468927 2.21468927 2.21468927"></polygon>
                            <path d="M54.8926554,56 L43.819209,56 C43.2076395,56 42.7118644,55.5042249 42.7118644,54.8926554 L42.7118644,43.819209 C42.7118644,43.2076395 43.2076395,42.7118644 43.819209,42.7118644 L54.8926554,42.7118644 C55.5042249,42.7118644 56,43.2076395 56,43.819209 L56,54.8926554 C56,55.5042249 55.5042249,56 54.8926554,56 Z" id="Shape"></path>
                            <polygon id="Path" points="44.9265537 53.7853107 53.7853107 53.7853107 53.7853107 44.9265537 44.9265537 44.9265537"></polygon>
                            <path d="M49.3559322,13.2881356 C45.6865149,13.2881356 42.7118644,10.3134851 42.7118644,6.6440678 C42.7118644,2.97465048 45.6865149,0 49.3559322,0 C53.0253495,0 56,2.97465048 56,6.6440678 C56,10.3134851 53.0253495,13.2881356 49.3559322,13.2881356 L49.3559322,13.2881356 Z" id="Shape"></path>
                            <path d="M49.3559322,2.21468927 C46.909654,2.21468927 44.9265537,4.19778958 44.9265537,6.6440678 C44.9265537,9.09034601 46.909654,11.0734463 49.3559322,11.0734463 C51.8022104,11.0734463 53.7853107,9.09034601 53.7853107,6.6440678 C53.7853107,5.46932357 53.3186454,4.34269381 52.4879758,3.5120242 C51.6573062,2.68135459 50.5306764,2.21468927 49.3559322,2.21468927 Z" id="Path"></path>
                            <path d="M6.6440678,56 C2.97465048,56 0,53.0253495 0,49.3559322 C0,45.6865149 2.97465048,42.7118644 6.6440678,42.7118644 C10.3134851,42.7118644 13.2881356,45.6865149 13.2881356,49.3559322 C13.2881356,53.0253495 10.3134851,56 6.6440678,56 Z" id="Shape"></path>
                            <path d="M6.6440678,44.9265537 C4.19778958,44.9265537 2.21468927,46.909654 2.21468927,49.3559322 C2.21468927,51.8022104 4.19778958,53.7853107 6.6440678,53.7853107 C9.09034601,53.7853107 11.0734463,51.8022104 11.0734463,49.3559322 C11.0734463,46.909654 9.09034601,44.9265537 6.6440678,44.9265537 Z" id="Path"></path>
                            <path d="M6.6440678,50.3050847 C6.11986532,50.3050847 5.69491525,49.7965975 5.69491525,49.1693467 L5.69491525,24.8645516 C5.69491525,24.2373008 6.11986532,23.7288136 6.6440678,23.7288136 C7.16827027,23.7288136 7.59322034,24.2373008 7.59322034,24.8645516 L7.59322034,49.1693467 C7.59322034,49.7965975 7.16827027,50.3050847 6.6440678,50.3050847 Z" id="Path"></path>
                            <polygon id="Path" points="11.740678 26.5762712 6.52033898 18.0338983 1.3 26.5762712"></polygon>
                            <path d="M30.1862958,7.59322034 L5.8815008,7.59322034 C5.25424997,7.59322034 4.74576271,7.16827027 4.74576271,6.6440678 C4.74576271,6.11986532 5.25424997,5.69491525 5.8815008,5.69491525 L30.1862958,5.69491525 C30.8135466,5.69491525 31.3220339,6.11986532 31.3220339,6.6440678 C31.3220339,7.16827027 30.8135466,7.59322034 30.1862958,7.59322034 Z" id="Path"></path>
                            <polygon id="Path" points="37.9661017 6.47033898 29.4237288 1.25 29.4237288 11.690678"></polygon>
                            <path d="M49.1693467,50.3050847 L24.8645516,50.3050847 C24.2373008,50.3050847 23.7288136,49.8801347 23.7288136,49.3559322 C23.7288136,48.8317297 24.2373008,48.4067797 24.8645516,48.4067797 L49.1693467,48.4067797 C49.7965975,48.4067797 50.3050847,48.8317297 50.3050847,49.3559322 C50.3050847,49.8801347 49.7965975,50.3050847 49.1693467,50.3050847 Z" id="Path"></path>
                            <polygon id="Path" points="26.5762712 44 18.0338983 49.220339 26.5762712 54.440678"></polygon>
                            <path d="M49.3559322,31.3220339 C48.8317297,31.3220339 48.4067797,30.8135466 48.4067797,30.1862958 L48.4067797,5.8815008 C48.4067797,5.25424997 48.8317297,4.74576271 49.3559322,4.74576271 C49.8801347,4.74576271 50.3050847,5.25424997 50.3050847,5.8815008 L50.3050847,30.1862958 C50.3050847,30.8135466 49.8801347,31.3220339 49.3559322,31.3220339 Z" id="Path"></path>
                            <polygon id="Path" points="44.2 29.4237288 49.420339 37.9661017 54.640678 29.4237288"></polygon>
                        </g>
                    </g>
                </g>
            </g>
        </g>
    </g>
</svg>